<svg width="14" height="19" viewBox="0 0 14 19" fill="none" xmlns="http://www.w3.org/2000/svg">
  <g clip-path="url(#clip0)" fill="#FF1A1A">
    <path d="M4.606 11.38l.801-.186a.824.824 0 00.079-.02.883.883 0 00.631-1.052l-.003-.015a.88.88 0 00-.136-.297 1.116 1.116 0 00-.327-.28 3.026 3.026 0 00-.465-.215l-.878-.32a82.459 82.459 0 00-1.484-.536c-.323-.115-.596-.215-.833-.289-.045-.014-.095-.027-.135-.041-.287-.088-.489-.125-.66-.126a.786.786 0 00-.333.06.85.85 0 00-.288.206c-.04.046-.078.093-.114.143a1.685 1.685 0 00-.168.336 4.547 4.547 0 00-.24 1.494c.004.46.016 1.05.27 1.449a.853.853 0 00.24.26c.18.124.361.14.55.154.283.02.557-.05.83-.112l2.661-.614h.002zm8.935-4.25a4.55 4.55 0 00-.87-1.24 1.725 1.725 0 00-.299-.228 1.699 1.699 0 00-.164-.078.787.787 0 00-.675.034c-.153.076-.319.198-.538.402-.03.03-.069.064-.103.096-.181.17-.383.38-.623.625-.37.374-.736.751-1.098 1.132l-.65.673a3.026 3.026 0 00-.323.397c-.082.119-.14.253-.171.395a.881.881 0 00.008.327c0 .005.002.01.003.014a.883.883 0 001.029.669.836.836 0 00.08-.016l3.462-.8c.273-.062.55-.12.795-.262.165-.095.321-.19.428-.38a.853.853 0 00.102-.34c.053-.471-.194-1.006-.393-1.42zM7.344 8.586c.25-.315.25-.785.272-1.168.075-1.282.154-2.565.216-3.847.024-.486.076-.966.047-1.455-.025-.404-.028-.868-.283-1.2C7.145.333 6.184.38 5.529.472a6.307 6.307 0 00-.602.113c-.2.048-.397.1-.59.162-.629.206-1.513.584-1.662 1.308-.085.41.116.828.271 1.202.188.452.446.86.68 1.287.62 1.125 1.251 2.243 1.88 3.363.188.334.393.757.757.93a.78.78 0 00.073.028.88.88 0 00.95-.219.786.786 0 00.058-.06zm-.301 3.431a.801.801 0 00-1.16-.156 2.077 2.077 0 00-.376.385c-.028.035-.054.082-.087.113l-.557.765c-.315.429-.627.859-.935 1.295-.201.282-.375.52-.513.731-.026.04-.053.084-.078.12-.165.254-.258.44-.306.606a.791.791 0 00-.033.342.85.85 0 00.119.338c.033.052.07.102.108.15a1.694 1.694 0 00.28.257c.384.267.805.46 1.248.608.368.122.751.195 1.139.217a1.735 1.735 0 00.38-.03c.06-.014.118-.03.177-.051a.863.863 0 00.302-.192.793.793 0 00.184-.29c.064-.16.107-.363.134-.665l.013-.142c.022-.25.032-.545.048-.891.027-.533.048-1.063.064-1.595l.036-.946a2.27 2.27 0 00-.06-.675 1.01 1.01 0 00-.127-.294zm6.289 1.478c-.116-.127-.28-.254-.54-.411-.038-.02-.082-.049-.123-.073-.216-.13-.477-.267-.781-.432a87.6 87.6 0 00-1.409-.754l-.834-.442c-.044-.013-.088-.044-.128-.064a2.078 2.078 0 00-.507-.18 1.067 1.067 0 00-.304-.013.802.802 0 00-.668.662.992.992 0 00.011.317c.041.222.14.442.243.634l.446.834c.249.47.5.939.757 1.405.167.304.305.565.434.78.025.041.053.085.074.122.157.26.284.423.412.54a.81.81 0 00.292.179.864.864 0 00.357.04c.061-.008.122-.018.182-.032a1.776 1.776 0 00.354-.14c.338-.19.65-.423.928-.694.333-.328.627-.685.856-1.093.032-.058.06-.118.083-.18.021-.057.04-.116.055-.175.014-.06.024-.12.031-.182a.86.86 0 00-.04-.355.792.792 0 00-.18-.293z"/>
  </g>
  <defs>
    <clipPath id="clip0">
      <path fill="#fff" d="M0 0h14v19H0z"/>
    </clipPath>
  </defs>
</svg>
